<?xml version="1.0" standalone="no"?>
<!DOCTYPE svg PUBLIC "-//W3C//DTD SVG 1.0//EN" "http://www.w3.org/TR/2001/REC-SVG-20010904/DTD/svg10.dtd">
<svg xmlns="http://www.w3.org/2000/svg" xmlns:xlink="http://www.w3.org/1999/xlink" id="body_1" width="29" height="29">

<g transform="matrix(0.453125 0 0 0.453125 0 0)">
	<g transform="matrix(3.208255 0 0 3.208255 -35.559128 -63.5872)">
        <path d="M13.513 35.76C 12.629126 35.758595 11.815536 35.277954 11.387771 34.50449C 10.960005 33.73102 10.985359 32.786404 11.4539995 32.037L11.4539995 32.037L15.830999 25.046999C 16.292229 24.310495 17.111341 23.876003 17.979788 23.907188C 18.848232 23.938374 19.634071 24.4305 20.041286 25.198189C 20.448502 25.965878 20.415228 26.892496 19.953999 27.629L19.953999 27.629L15.575998 34.619C 15.131233 35.32978 14.351461 35.761055 13.512999 35.76L13.512999 35.76L13.513 35.76z" stroke="none" fill="#FF3D57" fill-rule="nonzero" />
        <path d="M21.056 35.76C 20.17141 35.76005 19.356491 35.27998 18.927742 34.506237C 18.498995 33.7325 18.523983 32.787014 18.993 32.037L18.993 32.037L23.373001 25.046999C 23.815311 24.27083 24.647554 23.79964 25.54068 23.819729C 26.433804 23.839817 27.24402 24.347948 27.650986 25.143219C 28.05795 25.93849 27.996143 26.892864 27.490002 27.629L27.490002 27.629L23.118002 34.619C 22.673239 35.32978 21.893465 35.761055 21.055002 35.76L21.055002 35.76L21.056 35.76z" stroke="none" fill="#FFCB00" fill-rule="nonzero" />
        <path d="M26.161 33.384C 26.161 32.072323 27.251635 31.008999 28.597 31.008999C 29.942366 31.008999 31.033 32.072323 31.033 33.384C 31.033 34.695675 29.942366 35.759 28.597 35.759C 27.251635 35.759 26.161 34.695675 26.161 33.384" stroke="none" fill="#00D647" fill-rule="nonzero" />
	</g>
</g>
</svg>