<svg xmlns="http://www.w3.org/2000/svg" width="300" viewBox="0 0 300 225" height="225" version="1.0"><defs><clipPath id="a"><path d="M 55.394531 37.054688 L 199 37.054688 L 199 143 L 55.394531 143 Z M 55.394531 37.054688"/></clipPath><clipPath id="b"><path d="M 101 81 L 244.394531 81 L 244.394531 187.804688 L 101 187.804688 Z M 101 81"/></clipPath></defs><path fill="#FFF" d="M-30 -22.5H330V247.5H-30z"/><path fill="#FFF" d="M-30 -22.5H330V247.5H-30z"/><path fill="#FFF" d="M-30 -22.5H330V247.5H-30z"/><path fill="#FFF" d="M 160.867188 110.277344 C 146.28125 112.042969 112.257812 125.300781 122.863281 145.632812 C 133.46875 165.960938 164.402344 163.308594 186.496094 160.660156 C 208.59375 158.007812 226.710938 153.144531 225.386719 140.328125 C 224.058594 127.511719 205.941406 107.183594 193.566406 106.738281 C 181.195312 106.296875 160.867188 110.277344 160.867188 110.277344"/><path fill="#F16644" d="M 196.640625 86.878906 C 194.875 60.066406 165.417969 38.738281 129.335938 38.738281 C 92.117188 38.738281 61.945312 61.433594 61.945312 89.429688 C 61.945312 98.117188 64.855469 106.296875 69.976562 113.445312 C 66.332031 123.183594 58.492188 140.121094 58.492188 140.121094 L 89.085938 130.085938 C 93.425781 132.523438 98.175781 134.570312 103.238281 136.171875 L 196.640625 86.878906"/><g clip-path="url(#a)"><path fill="#662E79" d="M 55.390625 142.882812 L 56.988281 139.425781 C 57.0625 139.261719 64.417969 123.355469 68.121094 113.679688 C 62.996094 106.246094 60.289062 97.878906 60.289062 89.429688 C 60.289062 82.296875 62.144531 75.386719 65.800781 68.886719 C 69.308594 62.648438 74.316406 57.054688 80.691406 52.261719 C 93.703125 42.472656 110.980469 37.082031 129.335938 37.082031 C 166.167969 37.082031 196.457031 58.90625 198.292969 86.769531 L 194.988281 86.984375 C 194.167969 74.492188 187.027344 62.8125 174.890625 54.097656 C 162.578125 45.261719 146.402344 40.394531 129.335938 40.394531 C 93.089844 40.394531 63.601562 62.390625 63.601562 89.429688 C 63.601562 97.460938 66.273438 105.429688 71.324219 112.480469 L 71.839844 113.199219 L 71.527344 114.027344 C 68.898438 121.046875 64.0625 131.875 61.570312 137.367188 L 89.257812 128.285156 L 89.894531 128.644531 C 94.152344 131.03125 98.808594 133.035156 103.738281 134.59375 L 102.738281 137.75 C 97.839844 136.203125 93.195312 134.230469 88.914062 131.886719 L 55.390625 142.882812"/></g><path fill="#F16644" d="M 207.417969 145.558594 C 201.214844 145.558594 196.1875 140.527344 196.1875 134.324219 C 196.1875 128.121094 201.214844 123.089844 207.417969 123.089844 C 213.621094 123.089844 218.648438 128.121094 218.648438 134.324219 C 218.648438 140.527344 213.621094 145.558594 207.417969 145.558594 Z M 172.175781 145.558594 C 165.972656 145.558594 160.945312 140.527344 160.945312 134.324219 C 160.945312 128.121094 165.972656 123.089844 172.175781 123.089844 C 178.378906 123.089844 183.40625 128.121094 183.40625 134.324219 C 183.40625 140.527344 178.378906 145.558594 172.175781 145.558594 Z M 136.933594 145.558594 C 130.730469 145.558594 125.703125 140.527344 125.703125 134.324219 C 125.703125 128.121094 130.730469 123.089844 136.933594 123.089844 C 143.136719 123.089844 148.164062 128.121094 148.164062 134.324219 C 148.164062 140.527344 143.136719 145.558594 136.933594 145.558594 Z M 229.808594 158.339844 C 234.925781 151.191406 237.835938 143.015625 237.835938 134.324219 C 237.835938 106.328125 207.667969 83.632812 170.445312 83.632812 C 133.230469 83.632812 103.058594 106.328125 103.058594 134.324219 C 103.058594 162.320312 133.230469 185.015625 170.445312 185.015625 C 185.535156 185.015625 199.46875 181.285156 210.699219 174.984375 L 241.292969 185.015625 C 241.292969 185.015625 233.453125 168.082031 229.808594 158.339844"/><g clip-path="url(#b)"><path fill="#662E79" d="M 136.933594 124.746094 C 131.652344 124.746094 127.359375 129.042969 127.359375 134.324219 C 127.359375 139.605469 131.652344 143.902344 136.933594 143.902344 C 142.210938 143.902344 146.507812 139.605469 146.507812 134.324219 C 146.507812 129.042969 142.210938 124.746094 136.933594 124.746094 Z M 136.933594 147.214844 C 129.828125 147.214844 124.046875 141.429688 124.046875 134.324219 C 124.046875 127.21875 129.828125 121.433594 136.933594 121.433594 C 144.039062 121.433594 149.820312 127.21875 149.820312 134.324219 C 149.820312 141.429688 144.039062 147.214844 136.933594 147.214844 Z M 172.175781 124.746094 C 166.894531 124.746094 162.597656 129.042969 162.597656 134.324219 C 162.597656 139.605469 166.894531 143.902344 172.175781 143.902344 C 177.457031 143.902344 181.75 139.605469 181.75 134.324219 C 181.75 129.042969 177.457031 124.746094 172.175781 124.746094 Z M 172.175781 147.214844 C 165.070312 147.214844 159.289062 141.429688 159.289062 134.324219 C 159.289062 127.21875 165.070312 121.433594 172.175781 121.433594 C 179.28125 121.433594 185.0625 127.21875 185.0625 134.324219 C 185.0625 141.429688 179.28125 147.214844 172.175781 147.214844 Z M 207.417969 124.746094 C 202.136719 124.746094 197.84375 129.042969 197.84375 134.324219 C 197.84375 139.605469 202.136719 143.902344 207.417969 143.902344 C 212.699219 143.902344 216.992188 139.605469 216.992188 134.324219 C 216.992188 129.042969 212.699219 124.746094 207.417969 124.746094 Z M 207.417969 147.214844 C 200.3125 147.214844 194.53125 141.429688 194.53125 134.324219 C 194.53125 127.21875 200.3125 121.433594 207.417969 121.433594 C 214.523438 121.433594 220.304688 127.21875 220.304688 134.324219 C 220.304688 141.429688 214.523438 147.214844 207.417969 147.214844 Z M 170.449219 85.289062 C 134.203125 85.289062 104.714844 107.285156 104.714844 134.324219 C 104.714844 161.363281 134.203125 183.359375 170.449219 183.359375 C 184.796875 183.359375 198.4375 179.964844 209.890625 173.539062 L 210.527344 173.183594 L 238.214844 182.265625 C 235.722656 176.773438 230.882812 165.941406 228.253906 158.921875 L 227.945312 158.09375 L 228.460938 157.378906 C 233.511719 150.328125 236.183594 142.355469 236.183594 134.324219 C 236.183594 107.285156 206.691406 85.289062 170.449219 85.289062 Z M 244.394531 187.777344 L 210.871094 176.78125 C 199.058594 183.253906 185.101562 186.671875 170.449219 186.671875 C 152.09375 186.671875 134.8125 181.28125 121.800781 171.492188 C 115.425781 166.699219 110.417969 161.105469 106.910156 154.867188 C 103.253906 148.367188 101.402344 141.457031 101.402344 134.324219 C 101.402344 127.195312 103.253906 120.28125 106.910156 113.78125 C 110.417969 107.542969 115.425781 101.949219 121.800781 97.15625 C 134.8125 87.367188 152.09375 81.976562 170.449219 81.976562 C 188.804688 81.976562 206.082031 87.367188 219.097656 97.15625 C 225.46875 101.949219 230.476562 107.542969 233.984375 113.78125 C 237.640625 120.28125 239.492188 127.195312 239.492188 134.324219 C 239.492188 142.773438 236.789062 151.140625 231.664062 158.574219 C 235.367188 168.25 242.722656 184.15625 242.796875 184.320312 L 244.394531 187.777344"/></g></svg>