<svg xmlns="http://www.w3.org/2000/svg" width="300" viewBox="0 0 300 225" height="225" version="1.0"><defs><clipPath id="a"><path d="M 116 107 L 184 107 L 184 173.757812 L 116 173.757812 Z M 116 107"/></clipPath><clipPath id="b"><path d="M 60.800781 51.507812 L 239.300781 51.507812 L 239.300781 158 L 60.800781 158 Z M 60.800781 51.507812"/></clipPath></defs><path fill="#FFF" d="M-30 -22.5H330V247.5H-30z"/><path fill="#FFF" d="M-30 -22.5H330V247.5H-30z"/><path fill="#FFF" d="M-30 -22.5H330V247.5H-30z"/><g clip-path="url(#a)"><path fill="#662E79" d="M 116.972656 140.472656 C 116.972656 158.863281 131.863281 173.773438 150.226562 173.773438 C 168.589844 173.773438 183.476562 158.863281 183.476562 140.472656 C 183.476562 122.074219 168.589844 107.164062 150.226562 107.164062 C 131.863281 107.164062 116.972656 122.074219 116.972656 140.472656"/></g><g clip-path="url(#b)"><path fill="#662E79" d="M 219.492188 94.324219 C 218.691406 70.589844 199.160156 51.527344 175.269531 51.527344 C 163.035156 51.527344 151.511719 56.53125 143.164062 65.371094 C 136.972656 61.0625 129.585938 58.71875 122.011719 58.71875 C 102.671875 58.71875 86.664062 73.742188 85.082031 92.75 C 70.898438 96.570312 60.878906 109.460938 60.878906 124.40625 C 60.878906 142.5 75.578125 157.222656 93.644531 157.222656 L 114.828125 157.222656 C 113.765625 154.96875 112.90625 152.601562 112.28125 150.136719 L 93.644531 150.136719 C 79.480469 150.136719 67.953125 138.59375 67.953125 124.40625 C 67.953125 111.933594 76.851562 101.289062 89.113281 99.097656 L 92.003906 98.582031 L 92.027344 95.636719 C 92.140625 79.1875 105.59375 65.804688 122.011719 65.804688 C 129.078125 65.804688 135.949219 68.324219 141.355469 72.90625 L 144.113281 75.238281 L 146.386719 72.429688 C 153.496094 63.648438 164.023438 58.613281 175.269531 58.613281 C 195.769531 58.613281 212.449219 75.316406 212.449219 95.851562 L 212.433594 96.097656 C 212.421875 96.285156 212.40625 96.46875 212.402344 96.660156 L 212.34375 99.246094 L 214.789062 100.09375 C 225.164062 103.664062 232.136719 113.433594 232.136719 124.40625 C 232.136719 138.59375 220.613281 150.136719 206.449219 150.136719 L 188.171875 150.136719 C 187.550781 152.601562 186.6875 154.96875 185.625 157.222656 L 206.449219 157.222656 C 224.511719 157.222656 239.210938 142.5 239.210938 124.40625 C 239.210938 111.28125 231.386719 99.5 219.492188 94.324219"/></g><path fill="#F16644" d="M 150.046875 161.796875 C 148.09375 161.796875 146.507812 160.207031 146.507812 158.253906 L 146.507812 127.261719 C 146.507812 125.304688 148.09375 123.71875 150.046875 123.71875 C 152 123.71875 153.582031 125.304688 153.582031 127.261719 L 153.582031 158.253906 C 153.582031 160.207031 152 161.796875 150.046875 161.796875"/><path fill="#F16644" d="M 133.703125 144.011719 C 132.839844 144.011719 131.980469 143.703125 131.300781 143.070312 C 129.867188 141.742188 129.78125 139.5 131.109375 138.058594 L 147 120.878906 C 147.652344 120.175781 148.5625 119.761719 149.527344 119.742188 C 150.476562 119.722656 151.414062 120.101562 152.09375 120.78125 L 169.25 137.964844 C 170.632812 139.347656 170.632812 141.589844 169.25 142.976562 C 167.871094 144.359375 165.632812 144.359375 164.25 142.976562 L 149.691406 128.394531 L 136.296875 142.875 C 135.601562 143.628906 134.652344 144.011719 133.703125 144.011719"/></svg>