<svg xmlns="http://www.w3.org/2000/svg" width="300" viewBox="0 0 300 225" height="225" version="1.0"><defs><clipPath id="a"><path d="M 96.09375 48 L 203 48 L 203 187 L 96.09375 187 Z M 96.09375 48"/></clipPath><clipPath id="b"><path d="M 128 35.691406 L 169 35.691406 L 169 58 L 128 58 Z M 128 35.691406"/></clipPath></defs><path fill="#FFF" d="M-30 -22.5H330V247.5H-30z"/><path fill="#FFF" d="M-30 -22.5H330V247.5H-30z"/><path fill="#FFF" d="M-30 -22.5H330V247.5H-30z"/><g clip-path="url(#a)"><path fill="#662E79" d="M 97.496094 49.324219 C 97.496094 49.324219 96.089844 178.511719 97.0625 181.910156 C 98.035156 185.3125 196.304688 189.457031 200.195312 184.109375 C 204.085938 178.765625 203.058594 58.8125 200.140625 52.980469 C 197.222656 47.148438 102.84375 47.382812 97.496094 49.324219 Z M 97.496094 49.324219"/></g><path fill="#FFF" d="M 108.753906 55.792969 C 108.753906 55.792969 107.652344 163.53125 108.414062 166.367188 C 109.175781 169.203125 186.265625 172.660156 189.316406 168.199219 C 192.367188 163.742188 191.5625 63.707031 189.273438 58.84375 C 186.984375 53.980469 112.949219 54.175781 108.753906 55.792969 Z M 108.753906 55.792969"/><path fill="#662E79" d="M 117.925781 70.722656 L 181.898438 70.722656 L 181.898438 73.636719 L 117.925781 73.636719 Z M 117.925781 70.722656"/><path fill="#662E79" d="M 117.742188 87.734375 L 181.714844 87.734375 L 181.714844 90.648438 L 117.742188 90.648438 Z M 117.742188 87.734375"/><path fill="#662E79" d="M 117.558594 104.742188 L 181.53125 104.742188 L 181.53125 107.660156 L 117.558594 107.660156 Z M 117.558594 104.742188"/><path fill="#662E79" d="M 117.375 121.753906 L 181.347656 121.753906 L 181.347656 124.667969 L 117.375 124.667969 Z M 117.375 121.753906"/><path fill="#662E79" d="M 117.191406 138.761719 L 181.164062 138.761719 L 181.164062 141.679688 L 117.191406 141.679688 Z M 117.191406 138.761719"/><g clip-path="url(#b)"><path fill="#F16644" d="M 161.222656 43.992188 C 158.0625 43.261719 152.710938 35.726562 148.085938 35.726562 C 143.464844 35.726562 141.035156 40.34375 138.601562 42.289062 C 136.171875 44.234375 128.386719 45.207031 128.386719 45.207031 L 128.386719 57.113281 L 167.789062 57.113281 L 168.035156 44.691406 C 168.03125 44.691406 164.382812 44.71875 161.222656 43.992188 Z M 150.761719 43.324219 C 149.910156 45.265625 145.992188 46.285156 145.289062 43.324219 C 144.195312 38.707031 149.058594 38.707031 149.058594 38.707031 C 151.679688 40.410156 151.613281 41.378906 150.761719 43.324219 Z M 150.761719 43.324219"/></g></svg>