<svg xmlns="http://www.w3.org/2000/svg" width="300" viewBox="0 0 300 225" height="225" version="1.0"><defs><clipPath id="a"><path d="M 72 43.082031 L 227.894531 43.082031 L 227.894531 181.832031 L 72 181.832031 Z M 72 43.082031"/></clipPath></defs><path fill="#FFF" d="M-30 -22.5H330V247.5H-30z"/><path fill="#FFF" d="M-30 -22.5H330V247.5H-30z"/><path fill="#FFF" d="M-30 -22.5H330V247.5H-30z"/><path fill="#F16644" d="M 181.921875 151.359375 C 181.921875 154.644531 182.574219 157.617188 183.648438 160.28125 L 92.386719 160.28125 C 79.828125 160.28125 71.980469 146.679688 78.257812 135.796875 L 125.089844 54.621094 C 131.367188 43.738281 147.0625 43.738281 153.339844 54.621094 L 195.804688 128.230469 C 192.285156 129.875 187.667969 131.316406 182.265625 131.375 C 182.152344 131.378906 182.039062 131.378906 181.921875 131.378906 Z M 181.921875 151.359375"/><path fill="#FFF" d="M 182.265625 131.375 C 182.152344 131.378906 182.039062 131.378906 181.921875 131.378906 L 181.921875 146.976562 L 95.375 146.976562 C 91.722656 146.976562 89.441406 143.023438 91.265625 139.859375 L 135.109375 63.863281 C 136.933594 60.699219 141.496094 60.699219 143.320312 63.863281 Z M 182.265625 131.375"/><path fill="#F16644" d="M 203.375 123.398438 C 203.375 123.398438 194.855469 131.378906 181.921875 131.378906 L 181.921875 151.359375 C 181.921875 170.230469 203.375 178.722656 203.375 178.722656 C 203.375 178.722656 224.824219 170.230469 224.824219 151.359375 L 224.824219 131.378906 C 211.070312 131.378906 203.375 123.398438 203.375 123.398438 Z M 203.375 123.398438"/><path fill="#F16644" d="M 203.375 123.398438 C 203.375 123.398438 194.855469 131.378906 181.921875 131.378906 L 181.921875 151.359375 C 181.921875 170.230469 203.375 178.722656 203.375 178.722656 C 203.375 178.722656 224.824219 170.230469 224.824219 151.359375 L 224.824219 131.378906 C 211.070312 131.378906 203.375 123.398438 203.375 123.398438 Z M 203.375 123.398438"/><g clip-path="url(#a)"><path fill="#662E79" d="M 224.824219 128.347656 C 212.65625 128.347656 205.859375 121.601562 205.546875 121.285156 C 204.394531 120.101562 202.507812 120.054688 201.304688 121.183594 C 201.269531 121.214844 199.71875 122.640625 196.984375 124.214844 L 186.183594 105.492188 C 185.347656 104.042969 183.496094 103.542969 182.046875 104.382812 C 180.597656 105.21875 180.101562 107.074219 180.9375 108.523438 L 191.445312 126.734375 C 189.246094 127.488281 186.738281 128.074219 183.972656 128.273438 L 145.945312 62.347656 C 144.558594 59.945312 141.980469 58.460938 139.210938 58.460938 C 136.402344 58.460938 133.886719 59.914062 132.484375 62.347656 L 88.640625 138.34375 C 87.238281 140.777344 87.238281 143.6875 88.644531 146.121094 C 90.046875 148.554688 92.5625 150.007812 95.375 150.007812 L 178.894531 150.007812 L 178.894531 151.359375 C 178.894531 153.363281 179.117188 155.328125 179.546875 157.25 L 91.777344 157.25 C 87.101562 157.25 82.914062 154.832031 80.578125 150.78125 C 78.238281 146.726562 78.238281 141.890625 80.578125 137.839844 L 127.714844 56.132812 C 130.140625 51.90625 134.25 49.140625 139.210938 49.140625 C 143.886719 49.140625 148.074219 51.558594 150.410156 55.601562 L 168.03125 86.152344 C 168.867188 87.601562 170.71875 88.097656 172.167969 87.261719 C 173.617188 86.421875 174.113281 84.570312 173.277344 83.121094 L 155.964844 53.113281 C 152.464844 47.007812 146.34375 43.078125 139.214844 43.078125 C 132.089844 43.078125 125.964844 47.007812 122.464844 53.105469 L 75.328125 134.804688 C 71.898438 140.757812 71.898438 147.859375 75.332031 153.8125 C 78.761719 159.761719 84.910156 163.3125 91.777344 163.3125 L 181.699219 163.3125 C 183.6875 167.351562 186.707031 171.101562 190.707031 174.445312 C 196.378906 179.183594 202.023438 181.449219 202.261719 181.542969 C 202.972656 181.824219 203.777344 181.824219 204.488281 181.542969 C 204.726562 181.449219 210.371094 179.183594 216.042969 174.445312 C 223.769531 167.988281 227.855469 160.003906 227.855469 151.359375 L 227.855469 131.378906 C 227.855469 129.703125 226.5 128.347656 224.824219 128.347656 Z M 95.375 143.945312 C 94.480469 143.945312 94.039062 143.347656 93.890625 143.089844 C 93.742188 142.832031 93.441406 142.148438 93.886719 141.375 L 137.730469 65.378906 C 138.175781 64.605469 138.917969 64.523438 139.214844 64.523438 C 139.824219 64.523438 140.390625 64.847656 140.699219 65.378906 L 178.894531 131.59375 L 178.894531 143.945312 Z M 221.796875 151.359375 C 221.796875 165.574219 207.519531 173.425781 203.375 175.402344 C 199.222656 173.421875 184.953125 165.570312 184.953125 151.359375 L 184.953125 146.988281 C 184.953125 146.984375 184.953125 146.980469 184.953125 146.976562 L 184.953125 134.277344 C 193.644531 133.515625 200.140625 129.636719 203.308594 127.332031 C 206.371094 129.691406 212.683594 133.5625 221.796875 134.289062 Z M 221.796875 151.359375"/></g><path fill="#662E79" d="M 197.804688 147.75 C 196.621094 146.566406 194.703125 146.566406 193.519531 147.75 C 192.335938 148.933594 192.335938 150.851562 193.519531 152.039062 L 198.691406 157.210938 C 199.257812 157.78125 200.027344 158.101562 200.832031 158.101562 C 201.636719 158.101562 202.40625 157.78125 202.972656 157.210938 L 214.253906 145.921875 C 215.4375 144.738281 215.4375 142.820312 214.253906 141.632812 C 213.074219 140.449219 211.15625 140.449219 209.972656 141.632812 L 200.832031 150.78125 Z M 197.804688 147.75"/><path fill="#662E79" d="M 139.214844 84.230469 C 137.542969 84.230469 136.183594 85.585938 136.183594 87.261719 L 136.183594 115.625 C 136.183594 117.300781 137.542969 118.65625 139.214844 118.65625 C 140.886719 118.65625 142.242188 117.300781 142.242188 115.625 L 142.242188 87.261719 C 142.242188 85.585938 140.886719 84.230469 139.214844 84.230469 Z M 139.214844 84.230469"/><path fill="#662E79" d="M 142.011719 127.433594 C 140.984375 124.921875 137.277344 125.019531 136.363281 127.570312 C 135.929688 128.789062 136.332031 130.183594 137.351562 130.980469 C 138.332031 131.75 139.71875 131.824219 140.785156 131.183594 C 142.042969 130.421875 142.578125 128.796875 142.011719 127.433594 Z M 142.011719 127.433594"/><path fill="#662E79" d="M 174.257812 96.886719 C 174.890625 98.410156 176.683594 99.15625 178.210938 98.527344 C 179.734375 97.894531 180.480469 96.089844 179.847656 94.566406 C 179.214844 93.042969 177.417969 92.292969 175.894531 92.925781 C 174.363281 93.5625 173.632812 95.359375 174.257812 96.886719 Z M 174.257812 96.886719"/></svg>