<svg xmlns="http://www.w3.org/2000/svg" width="300" viewBox="0 0 300 225" height="225" version="1.0"><defs><clipPath id="a"><path d="M 74.890625 37.390625 L 224.890625 37.390625 L 224.890625 187.390625 L 74.890625 187.390625 Z M 74.890625 37.390625"/></clipPath></defs><path fill="#FFF" d="M-30 -22.5H330V247.5H-30z"/><path fill="#FFF" d="M-30 -22.5H330V247.5H-30z"/><path fill="#FFF" d="M-30 -22.5H330V247.5H-30z"/><path fill="#F16644" d="M 197.335938 113.945312 L 187.699219 121.238281 L 163.050781 139.941406 L 222.308594 184.890625 L 222.308594 94.992188 L 197.335938 76.039062 Z M 197.335938 113.945312"/><path fill="#F16644" d="M 162.375 89.996094 L 182.351562 89.996094 L 182.351562 70.019531 L 162.375 70.019531 Z M 162.375 89.996094"/><path fill="#F16644" d="M 149.890625 40.054688 L 130.136719 55.035156 L 169.644531 55.035156 Z M 149.890625 40.054688"/><path fill="#F16644" d="M 112.082031 121.238281 L 102.441406 113.945312 L 102.441406 76.039062 L 77.46875 94.992188 L 77.46875 184.890625 L 136.730469 139.941406 Z M 112.082031 121.238281"/><g clip-path="url(#a)"><path fill="#662E79" d="M 223.808594 92.992188 L 199.832031 74.789062 L 199.832031 60.03125 C 199.820312 55.898438 196.476562 52.550781 192.34375 52.539062 L 170.492188 52.539062 L 151.386719 38.054688 C 150.503906 37.378906 149.277344 37.378906 148.390625 38.054688 L 129.289062 52.539062 L 107.4375 52.539062 C 103.304688 52.550781 99.957031 55.898438 99.945312 60.03125 L 99.945312 74.789062 L 75.972656 92.992188 C 75.347656 93.46875 74.976562 94.207031 74.972656 94.992188 L 74.972656 184.890625 C 74.972656 186.269531 76.089844 187.390625 77.46875 187.390625 L 222.308594 187.390625 C 223.6875 187.390625 224.804688 186.269531 224.804688 184.890625 L 224.804688 94.992188 C 224.800781 94.207031 224.433594 93.46875 223.808594 92.992188 Z M 199.832031 81.058594 L 218.1875 94.992188 L 199.832031 108.902344 Z M 149.890625 43.175781 L 162.226562 52.539062 L 137.554688 52.539062 Z M 104.9375 60.03125 C 104.9375 58.652344 106.058594 57.535156 107.4375 57.535156 L 192.34375 57.535156 C 193.722656 57.535156 194.839844 58.652344 194.839844 60.03125 L 194.839844 112.695312 L 163.050781 136.796875 L 151.386719 127.957031 C 150.503906 127.28125 149.277344 127.28125 148.390625 127.957031 L 136.730469 136.796875 L 104.9375 112.695312 Z M 99.945312 81.058594 L 99.945312 108.902344 L 81.589844 94.992188 Z M 79.96875 100.011719 L 132.585938 139.941406 L 79.96875 179.875 Z M 84.886719 182.394531 L 149.890625 133.097656 L 214.890625 182.394531 Z M 219.8125 179.875 L 167.195312 139.941406 L 219.8125 100.011719 Z M 219.8125 179.875"/></g><path fill="#662E79" d="M 107.4375 177.402344 L 117.425781 177.402344 L 117.425781 172.40625 L 107.4375 172.40625 Z M 107.4375 177.402344"/><path fill="#662E79" d="M 122.417969 177.402344 L 177.359375 177.402344 L 177.359375 172.40625 L 122.417969 172.40625 Z M 122.417969 177.402344"/><path fill="#662E79" d="M 182.351562 177.402344 L 192.34375 177.402344 L 192.34375 172.40625 L 182.351562 172.40625 Z M 182.351562 177.402344"/><path fill="#662E79" d="M 114.929688 75.015625 L 119.921875 75.015625 L 119.921875 70.019531 L 114.929688 70.019531 Z M 114.929688 75.015625"/><path fill="#662E79" d="M 124.917969 75.015625 L 149.890625 75.015625 L 149.890625 70.019531 L 124.917969 70.019531 Z M 124.917969 75.015625"/><path fill="#662E79" d="M 114.929688 89.996094 L 149.890625 89.996094 L 149.890625 85.003906 L 114.929688 85.003906 Z M 114.929688 89.996094"/><path fill="#662E79" d="M 114.929688 104.980469 L 184.851562 104.980469 L 184.851562 99.988281 L 114.929688 99.988281 Z M 114.929688 104.980469"/><path fill="#662E79" d="M 114.929688 119.964844 L 184.851562 119.964844 L 184.851562 114.96875 L 114.929688 114.96875 Z M 114.929688 119.964844"/><path fill="#662E79" d="M 162.375 92.496094 L 182.351562 92.496094 C 183.730469 92.496094 184.851562 91.375 184.851562 89.996094 L 184.851562 70.019531 C 184.851562 68.640625 183.730469 67.523438 182.351562 67.523438 L 162.375 67.523438 C 160.996094 67.523438 159.878906 68.640625 159.878906 70.019531 L 159.878906 89.996094 C 159.878906 91.375 160.996094 92.496094 162.375 92.496094 Z M 164.871094 72.515625 L 179.855469 72.515625 L 179.855469 87.5 L 164.871094 87.5 Z M 164.871094 72.515625"/></svg>